<svg width="64" height="64" viewBox="0 0 64 64" fill="none" xmlns="http://www.w3.org/2000/svg">
<path d="M24.21 48.6667H39.7867H24.21ZM32 2V5.33333V2ZM53.2133 10.7867L50.8567 13.1433L53.2133 10.7867ZM62 32H58.6667H62ZM5.33333 32H2H5.33333ZM13.1433 13.1433L10.7867 10.7867L13.1433 13.1433ZM20.2133 43.7867C17.8829 41.4556 16.296 38.4859 15.6533 35.253C15.0105 32.0201 15.3408 28.6692 16.6024 25.624C17.864 22.5789 20.0002 19.9761 22.741 18.145C25.4817 16.3138 28.7038 15.3364 32 15.3364C35.2962 15.3364 38.5183 16.3138 41.259 18.145C43.9998 19.9761 46.136 22.5789 47.3976 25.624C48.6592 28.6692 48.9895 32.0201 48.3467 35.253C47.704 38.4859 46.1171 41.4556 43.7867 43.7867L41.96 45.61C40.9157 46.6545 40.0874 47.8945 39.5223 49.2591C38.9572 50.6237 38.6665 52.0863 38.6667 53.5633V55.3333C38.6667 57.1014 37.9643 58.7971 36.714 60.0474C35.4638 61.2976 33.7681 62 32 62C30.2319 62 28.5362 61.2976 27.286 60.0474C26.0357 58.7971 25.3333 57.1014 25.3333 55.3333V53.5633C25.3333 50.58 24.1467 47.7167 22.04 45.61L20.2133 43.7867Z" stroke="#1A73E8" stroke-width="4" stroke-linecap="round" stroke-linejoin="round"/>
</svg>
