<svg width="52" height="52" viewBox="0 0 52 52" fill="none" xmlns="http://www.w3.org/2000/svg">
<path d="M18 2V7.33333V2ZM34 2V7.33333V2ZM18 44.6667V50V44.6667ZM34 44.6667V50V44.6667ZM7.33333 18H2H7.33333ZM7.33333 34H2H7.33333ZM50 18H44.6667H50ZM50 34H44.6667H50ZM12.6667 44.6667H39.3333C40.7478 44.6667 42.1044 44.1048 43.1046 43.1046C44.1048 42.1044 44.6667 40.7478 44.6667 39.3333V12.6667C44.6667 11.2522 44.1048 9.89562 43.1046 8.89543C42.1044 7.89524 40.7478 7.33333 39.3333 7.33333H12.6667C11.2522 7.33333 9.89562 7.89524 8.89543 8.89543C7.89524 9.89562 7.33333 11.2522 7.33333 12.6667V39.3333C7.33333 40.7478 7.89524 42.1044 8.89543 43.1046C9.89562 44.1048 11.2522 44.6667 12.6667 44.6667ZM18 18H34V34H18V18Z" stroke="#1A73E8" stroke-width="4" stroke-linecap="round" stroke-linejoin="round"/>
</svg>
