<svg width="64" height="48" viewBox="0 0 64 48" fill="none" xmlns="http://www.w3.org/2000/svg">
<path fill-rule="evenodd" clip-rule="evenodd" d="M24 6C24 4.4087 24.6321 2.88258 25.7574 1.75736C26.8826 0.632141 28.4087 0 30 0H34C35.5913 0 37.1174 0.632141 38.2426 1.75736C39.3679 2.88258 40 4.4087 40 6V10C40 11.5913 39.3679 13.1174 38.2426 14.2426C37.1174 15.3679 35.5913 16 34 16V20H56C56.5304 20 57.0391 20.2107 57.4142 20.5858C57.7893 20.9609 58 21.4696 58 22V26C58 26.5304 57.7893 27.0391 57.4142 27.4142C57.0391 27.7893 56.5304 28 56 28C55.4696 28 54.9609 27.7893 54.5858 27.4142C54.2107 27.0391 54 26.5304 54 26V24H34V26C34 26.5304 33.7893 27.0391 33.4142 27.4142C33.0391 27.7893 32.5304 28 32 28C31.4696 28 30.9609 27.7893 30.5858 27.4142C30.2107 27.0391 30 26.5304 30 26V24H10V26C10 26.5304 9.78929 27.0391 9.41421 27.4142C9.03914 27.7893 8.53043 28 8 28C7.46957 28 6.96086 27.7893 6.58579 27.4142C6.21071 27.0391 6 26.5304 6 26V22C6 21.4696 6.21071 20.9609 6.58579 20.5858C6.96086 20.2107 7.46957 20 8 20H30V16C28.4087 16 26.8826 15.3679 25.7574 14.2426C24.6321 13.1174 24 11.5913 24 10V6ZM34 12C34.5304 12 35.0391 11.7893 35.4142 11.4142C35.7893 11.0391 36 10.5304 36 10V6C36 5.46957 35.7893 4.96086 35.4142 4.58579C35.0391 4.21071 34.5304 4 34 4H30C29.4696 4 28.9609 4.21071 28.5858 4.58579C28.2107 4.96086 28 5.46957 28 6V10C28 10.5304 28.2107 11.0391 28.5858 11.4142C28.9609 11.7893 29.4696 12 30 12H34ZM0 38C0 36.4087 0.632141 34.8826 1.75736 33.7574C2.88258 32.6321 4.4087 32 6 32H10C11.5913 32 13.1174 32.6321 14.2426 33.7574C15.3679 34.8826 16 36.4087 16 38V42C16 43.5913 15.3679 45.1174 14.2426 46.2426C13.1174 47.3679 11.5913 48 10 48H6C4.4087 48 2.88258 47.3679 1.75736 46.2426C0.632141 45.1174 0 43.5913 0 42L0 38ZM6 36C5.46957 36 4.96086 36.2107 4.58579 36.5858C4.21071 36.9609 4 37.4696 4 38V42C4 42.5304 4.21071 43.0391 4.58579 43.4142C4.96086 43.7893 5.46957 44 6 44H10C10.5304 44 11.0391 43.7893 11.4142 43.4142C11.7893 43.0391 12 42.5304 12 42V38C12 37.4696 11.7893 36.9609 11.4142 36.5858C11.0391 36.2107 10.5304 36 10 36H6ZM24 38C24 36.4087 24.6321 34.8826 25.7574 33.7574C26.8826 32.6321 28.4087 32 30 32H34C35.5913 32 37.1174 32.6321 38.2426 33.7574C39.3679 34.8826 40 36.4087 40 38V42C40 43.5913 39.3679 45.1174 38.2426 46.2426C37.1174 47.3679 35.5913 48 34 48H30C28.4087 48 26.8826 47.3679 25.7574 46.2426C24.6321 45.1174 24 43.5913 24 42V38ZM30 36C29.4696 36 28.9609 36.2107 28.5858 36.5858C28.2107 36.9609 28 37.4696 28 38V42C28 42.5304 28.2107 43.0391 28.5858 43.4142C28.9609 43.7893 29.4696 44 30 44H34C34.5304 44 35.0391 43.7893 35.4142 43.4142C35.7893 43.0391 36 42.5304 36 42V38C36 37.4696 35.7893 36.9609 35.4142 36.5858C35.0391 36.2107 34.5304 36 34 36H30ZM48 38C48 36.4087 48.6321 34.8826 49.7574 33.7574C50.8826 32.6321 52.4087 32 54 32H58C59.5913 32 61.1174 32.6321 62.2426 33.7574C63.3679 34.8826 64 36.4087 64 38V42C64 43.5913 63.3679 45.1174 62.2426 46.2426C61.1174 47.3679 59.5913 48 58 48H54C52.4087 48 50.8826 47.3679 49.7574 46.2426C48.6321 45.1174 48 43.5913 48 42V38ZM54 36C53.4696 36 52.9609 36.2107 52.5858 36.5858C52.2107 36.9609 52 37.4696 52 38V42C52 42.5304 52.2107 43.0391 52.5858 43.4142C52.9609 43.7893 53.4696 44 54 44H58C58.5304 44 59.0391 43.7893 59.4142 43.4142C59.7893 43.0391 60 42.5304 60 42V38C60 37.4696 59.7893 36.9609 59.4142 36.5858C59.0391 36.2107 58.5304 36 58 36H54Z" fill="#1A73E8"/>
</svg>
