<svg width="52" height="52" viewBox="0 0 52 52" fill="none" xmlns="http://www.w3.org/2000/svg">
<path d="M20.6667 50H31.3333M44.6667 50V7.33333C44.6667 5.91885 44.1048 4.56229 43.1046 3.5621C42.1044 2.5619 40.7478 2 39.3333 2H12.6667C11.2522 2 9.89562 2.5619 8.89543 3.5621C7.89524 4.56229 7.33333 5.91885 7.33333 7.33333V50H44.6667ZM44.6667 50H50H44.6667ZM44.6667 50H31.3333H44.6667ZM7.33333 50H2H7.33333ZM7.33333 50H20.6667H7.33333ZM18 12.6667H20.6667H18ZM18 23.3333H20.6667H18ZM31.3333 12.6667H34H31.3333ZM31.3333 23.3333H34H31.3333ZM20.6667 50V36.6667C20.6667 35.9594 20.9476 35.2811 21.4477 34.7811C21.9478 34.281 22.6261 34 23.3333 34H28.6667C29.3739 34 30.0522 34.281 30.5523 34.7811C31.0524 35.2811 31.3333 35.9594 31.3333 36.6667V50H20.6667Z" stroke="#1A73E8" stroke-width="4" stroke-linecap="round" stroke-linejoin="round"/>
</svg>
