<svg width="34" height="34" viewBox="0 0 34 34" fill="none" xmlns="http://www.w3.org/2000/svg">
<path d="M2 5.33333C2 4.44928 2.35119 3.60143 2.97631 2.97631C3.60143 2.35119 4.44928 2 5.33333 2H10.8C11.1497 2.00027 11.4904 2.11049 11.7739 2.31508C12.0575 2.51967 12.2695 2.80826 12.38 3.14L14.8767 10.6283C15.0032 11.0089 14.9882 11.4223 14.8345 11.7927C14.6808 12.1632 14.3988 12.4658 14.04 12.645L10.2783 14.5283C12.1222 18.6092 15.3908 21.8778 19.4717 23.7217L21.355 19.96C21.5342 19.6012 21.8368 19.3192 22.2073 19.1655C22.5777 19.0118 22.9911 18.9968 23.3717 19.1233L30.86 21.62C31.192 21.7306 31.4808 21.9429 31.6854 22.2267C31.89 22.5106 32.0001 22.8517 32 23.2017V28.6667C32 29.5507 31.6488 30.3986 31.0237 31.0237C30.3986 31.6488 29.5507 32 28.6667 32H27C13.1933 32 2 20.8067 2 7V5.33333Z" stroke="#FFFFFF" stroke-width="4" stroke-linecap="round" stroke-linejoin="round"/>
</svg>
