<svg width="113" height="86" viewBox="0 0 113 86" fill="none" xmlns="http://www.w3.org/2000/svg">
<path opacity="0.2" d="M38.9735 37.5818L49.8122 0H22.3694L7.6102 33.8928C0.922449 48.6488 0 53.7212 0 60.177C0 75.8552 11.0694 86 26.2898 86C41.2796 86 52.5796 75.8552 52.5796 60.177C52.5796 49.3405 47.2755 41.5013 38.9735 37.5818ZM99.3939 37.5818L110.233 0H82.7898L68.0306 33.8928C61.3429 48.6488 60.4204 53.7212 60.4204 60.177C60.4204 75.8552 71.4898 86 86.7102 86C101.7 86 113 75.8552 113 60.177C113 49.3405 107.696 41.5013 99.3939 37.5818Z" fill="white"/>
</svg>
