<svg width="191" height="51" viewBox="0 0 191 51" fill="none" xmlns="http://www.w3.org/2000/svg">
<path d="M18.8729 38.2616H16.9577L13.8605 43.3637L10.7932 38.2616H8.71344L12.8281 45.0695V48.7352H14.7732V45.0395L18.8729 38.2616Z" fill="#0C3469"/>
<path d="M22.6668 48.84C25.1505 48.84 26.931 47.1343 26.931 44.7403C26.931 42.3463 25.1505 40.6556 22.6668 40.6556C20.2129 40.6556 18.4175 42.3463 18.4175 44.7403C18.4175 47.1343 20.2129 48.84 22.6668 48.84ZM22.6668 47.239C21.3202 47.239 20.3027 46.2664 20.3027 44.7403C20.3027 43.2141 21.3202 42.2416 22.6668 42.2416C24.0283 42.2416 25.0458 43.2141 25.0458 44.7403C25.0458 46.2664 24.0283 47.239 22.6668 47.239Z" fill="#0C3469"/>
<path d="M34.5848 40.7453V44.7852C34.5848 46.3861 33.702 47.1941 32.4003 47.1941C31.2182 47.1941 30.53 46.5058 30.53 45.0545V40.7453H28.6597V45.3088C28.6597 47.7178 30.0512 48.84 32.101 48.84C33.1334 48.84 34.076 48.4509 34.6745 47.7178V48.7352H36.4551V40.7453H34.5848Z" fill="#0C3469"/>
<path d="M40.6844 41.9124V40.7453H38.9039V48.7352H40.7742V44.86C40.7742 43.2291 41.6719 42.3912 43.0933 42.3912C43.228 42.3912 43.3626 42.4062 43.5272 42.4361V40.6556C42.1956 40.6556 41.223 41.0745 40.6844 41.9124Z" fill="#0C3469"/>
<path d="M57.1323 38.2616L53.6162 46.3413L50.13 38.2616H48.0203L52.5987 48.7352H54.5139L59.0774 38.2616H57.1323Z" fill="#0C3469"/>
<path d="M62.4564 40.6556C61.1696 40.6556 59.9277 40.9847 59.0749 41.6431L59.808 43.0046C60.4065 42.5109 61.3342 42.2116 62.2319 42.2116C63.5636 42.2116 64.2219 42.855 64.2219 43.9473V44.067H62.1571C59.7332 44.067 58.8355 45.1143 58.8355 46.446C58.8355 47.8375 59.9876 48.84 61.813 48.84C63.01 48.84 63.8778 48.4509 64.3267 47.7627V48.7352H66.0922V44.052C66.0922 41.7478 64.7606 40.6556 62.4564 40.6556ZM62.202 47.4784C61.2444 47.4784 60.6758 47.0445 60.6758 46.3712C60.6758 45.7876 61.02 45.3088 62.2918 45.3088H64.2219V46.2365C63.9077 47.0594 63.1147 47.4784 62.202 47.4784Z" fill="#0C3469"/>
<path d="M68.4925 48.7352H70.3628V37.6332H68.4925V48.7352Z" fill="#0C3469"/>
<path d="M78.6828 40.7453V44.7852C78.6828 46.3861 77.8 47.1941 76.4983 47.1941C75.3163 47.1941 74.628 46.5058 74.628 45.0545V40.7453H72.7577V45.3088C72.7577 47.7178 74.1492 48.84 76.1991 48.84C77.2315 48.84 78.1741 48.4509 78.7726 47.7178V48.7352H80.5531V40.7453H78.6828Z" fill="#0C3469"/>
<path d="M90.513 44.7852C90.513 42.2865 88.8073 40.6556 86.4732 40.6556C84.0942 40.6556 82.3436 42.3613 82.3436 44.7403C82.3436 47.1193 84.0792 48.84 86.7575 48.84C88.134 48.84 89.2562 48.3911 89.9744 47.5382L88.9719 46.3861C88.4033 46.9697 87.7001 47.254 86.8023 47.254C85.4108 47.254 84.4383 46.5058 84.2139 45.3388H90.4831C90.498 45.1592 90.513 44.9348 90.513 44.7852ZM86.4732 42.1518C87.7001 42.1518 88.5829 42.9448 88.7325 44.0969H84.1989C84.3784 42.9298 85.2612 42.1518 86.4732 42.1518Z" fill="#0C3469"/>
<path d="M94.7783 48.84C97.0227 48.84 98.3992 47.8674 98.3992 46.3712C98.3992 43.244 93.4616 44.6804 93.4616 43.0645C93.4616 42.5408 94.0003 42.1668 95.1374 42.1668C95.9005 42.1668 96.6636 42.3164 97.4267 42.7652L98.1449 41.3438C97.4267 40.9099 96.2147 40.6556 95.1524 40.6556C92.9978 40.6556 91.6362 41.6431 91.6362 43.1543C91.6362 46.3413 96.5738 44.9049 96.5738 46.431C96.5738 46.9846 96.0801 47.3138 94.898 47.3138C93.8956 47.3138 92.8183 46.9846 92.115 46.5208L91.3968 47.9422C92.115 48.4509 93.4467 48.84 94.7783 48.84Z" fill="#0C3469"/>
<path d="M100.623 46.3562C99.9351 46.3562 99.4114 46.85 99.4114 47.5981C99.4114 48.1367 99.6957 48.5258 100.115 48.7053L99.5161 50.9945H100.728L101.491 48.8849C101.761 48.1966 101.835 47.9273 101.835 47.5981C101.835 46.8649 101.327 46.3562 100.623 46.3562Z" fill="#0C3469"/>
<path d="M118.601 40.7453L116.431 46.6704L114.277 40.7453H112.706L110.506 46.6405L108.396 40.7453H106.631L109.563 48.7352H111.359L113.454 43.2291L115.519 48.7352H117.314L120.262 40.7453H118.601Z" fill="#0C3469"/>
<path d="M128.839 44.7852C128.839 42.2865 127.134 40.6556 124.8 40.6556C122.421 40.6556 120.67 42.3613 120.67 44.7403C120.67 47.1193 122.406 48.84 125.084 48.84C126.46 48.84 127.583 48.3911 128.301 47.5382L127.298 46.3861C126.73 46.9697 126.027 47.254 125.129 47.254C123.737 47.254 122.765 46.5058 122.54 45.3388H128.81C128.824 45.1592 128.839 44.9348 128.839 44.7852ZM124.8 42.1518C126.027 42.1518 126.909 42.9448 127.059 44.0969H122.525C122.705 42.9298 123.588 42.1518 124.8 42.1518Z" fill="#0C3469"/>
<path d="M140.726 37.6332V41.7328C140.098 40.9997 139.185 40.6556 138.153 40.6556C135.833 40.6556 134.113 42.2565 134.113 44.7403C134.113 47.224 135.833 48.84 138.153 48.84C139.245 48.84 140.173 48.4659 140.801 47.7028V48.7352H142.596V37.6332H140.726ZM138.377 47.239C137.03 47.239 135.998 46.2664 135.998 44.7403C135.998 43.2141 137.03 42.2416 138.377 42.2416C139.724 42.2416 140.756 43.2141 140.756 44.7403C140.756 46.2664 139.724 47.239 138.377 47.239Z" fill="#0C3469"/>
<path d="M146.824 41.9124V40.7453H145.043V48.7352H146.913V44.86C146.913 43.2291 147.811 42.3912 149.233 42.3912C149.367 42.3912 149.502 42.4062 149.666 42.4361V40.6556C148.335 40.6556 147.362 41.0745 146.824 41.9124Z" fill="#0C3469"/>
<path d="M152.196 39.4286C152.899 39.4286 153.393 38.9199 153.393 38.2616C153.393 37.6481 152.884 37.1843 152.196 37.1843C151.507 37.1843 150.999 37.678 150.999 38.3065C150.999 38.9349 151.507 39.4286 152.196 39.4286ZM151.253 48.7352H153.123V40.7453H151.253V48.7352Z" fill="#0C3469"/>
<path d="M161.264 40.7453L158.705 46.6704L156.222 40.7453H154.276L157.703 48.7352H159.633L163.059 40.7453H161.264Z" fill="#0C3469"/>
<path d="M171.52 44.7852C171.52 42.2865 169.814 40.6556 167.48 40.6556C165.101 40.6556 163.351 42.3613 163.351 44.7403C163.351 47.1193 165.086 48.84 167.765 48.84C169.141 48.84 170.263 48.3911 170.982 47.5382L169.979 46.3861C169.41 46.9697 168.707 47.254 167.81 47.254C166.418 47.254 165.445 46.5058 165.221 45.3388H171.49C171.505 45.1592 171.52 44.9348 171.52 44.7852ZM167.48 42.1518C168.707 42.1518 169.59 42.9448 169.74 44.0969H165.206C165.386 42.9298 166.268 42.1518 167.48 42.1518Z" fill="#0C3469"/>
<path d="M177.631 48.7352H179.576V38.2616H177.631V48.7352Z" fill="#0C3469"/>
<path d="M184.534 48.7352H186.479V39.9074H189.95V38.2616H181.063V39.9074H184.534V48.7352Z" fill="#0C3469"/>
<path d="M68.3578 28.3866C76.773 28.3866 80.9999 24.1984 80.9999 19.2346C80.9999 9.22952 65.9923 11.9441 65.9923 8.6866C65.9923 7.7559 66.8454 6.98031 69.5212 6.98031C71.8867 6.98031 74.4074 7.63956 77.0832 8.99684L79.8365 2.36555C77.0056 0.775589 73.244 0 69.5988 0C61.1836 0 56.9566 4.11062 56.9566 9.15196C56.9566 19.2734 71.9643 16.5201 71.9643 19.9327C71.9643 20.8634 71.0336 21.4063 68.4354 21.4063C65.4493 21.4063 62.0368 20.4368 59.4773 18.9244L56.5301 25.5945C59.2446 27.262 63.8206 28.3866 68.3578 28.3866Z" fill="#0C3469"/>
<path d="M89.239 27.7661H98.391V7.71712H106.341V0.620471H81.2892V7.71712H89.239V27.7661Z" fill="#0C3469"/>
<path d="M117.715 20.8634V17.2956H129.193V10.7031H117.715V7.52322H130.783V0.620471H108.718V27.7661H131.288V20.8634H117.715Z" fill="#0C3469"/>
<path d="M148.849 28.3866C154.162 28.3866 158.35 26.4476 161.026 22.9575L155.247 17.7998C153.658 19.8163 151.757 20.9797 149.314 20.9797C145.514 20.9797 142.954 18.3427 142.954 14.1933C142.954 10.0439 145.514 7.40688 149.314 7.40688C151.757 7.40688 153.658 8.57026 155.247 10.5868L161.026 5.42913C158.35 1.93897 154.162 0 148.849 0C140.123 0 133.725 5.8557 133.725 14.1933C133.725 22.5309 140.123 28.3866 148.849 28.3866Z" fill="#0C3469"/>
<path d="M181.274 0.620471V10.2378H172.82V0.620471H163.668V27.7661H172.82V17.761H181.274V27.7661H190.426V0.620471H181.274Z" fill="#0C3469"/>
<path d="M32.7719 27.5255L39.4032 11.6647L45.8793 27.5255H55.7293L44.2506 0.379903L35.2537 0.379903L23.775 27.5255H32.7719Z" fill="#0C3469"/>
<path d="M22.9575 0.620481L16.3262 16.4813L9.84999 0.620481H0L11.4787 27.7661H20.4756L31.9543 0.620481H22.9575Z" fill="#0C3469"/>
</svg>
